<svg xmlns="http://www.w3.org/2000/svg" width="24" height="24" viewBox="0 0 24 24"><title>ic_rack</title><g id="Icons"> 
	<path d="M5.9426,8.5125h12v-3h-12V8.5125z M10.9426,6.5125h1v1h-1V6.5125z M8.9426,6.5125h1v1h-1V6.5125z
		 M6.9426,6.5125h1v1h-1V6.5125z"/>
	<path d="M5.9426,13.5125h12v-3h-12V13.5125z M10.9426,11.5125h1v1h-1V11.5125z M8.9426,11.5125h1v1h-1V11.5125z
		 M6.9426,11.5125h1v1h-1V11.5125z"/>
	<path d="M5.9426,18.5125h12v-3h-12V18.5125z M10.9426,16.5125h1v1h-1V16.5125z M8.9426,16.5125h1v1h-1V16.5125z
		 M6.9426,16.5125h1v1h-1V16.5125z"/>
	<path d="M21.9426,3.5125c0-1.1046-0.8954-2-2-2h-9h-7c-1.1046,0-2,0.8954-2,2v17c0,1.1046,0.8954,2,2,2h7h9
		c1.1046,0,2-0.8954,2-2v-8V3.5125z M19.9426,12.5125v8h-9h-7v-17h7h9V12.5125z" fill="#000001"/>
</g>
</svg>
