<svg xmlns="http://www.w3.org/2000/svg" width="24" height="24" viewBox="0 0 24 24"><title>ic_settings</title><g id="Icons"><path d="M19.43,13a7.79,7.79,0,0,0,.07-1,7.79,7.79,0,0,0-.07-1l2.11-1.65a.5.5,0,0,0,.12-.64l-2-3.46a.5.5,0,0,0-.61-.22l-2.49,1a7.31,7.31,0,0,0-1.69-1l-.38-2.65A.49.49,0,0,0,14,2H10a.49.49,0,0,0-.49.42L9.13,5.07a7.68,7.68,0,0,0-1.69,1L5,5.05a.49.49,0,0,0-.61.22l-2,3.46a.49.49,0,0,0,.12.64L4.57,11a7.93,7.93,0,0,0-.07,1,7.93,7.93,0,0,0,.07,1L2.46,14.63a.5.5,0,0,0-.12.64l2,3.46a.5.5,0,0,0,.61.22l2.49-1a7.31,7.31,0,0,0,1.69,1l.38,2.65A.49.49,0,0,0,10,22h4a.49.49,0,0,0,.49-.42l.38-2.65a7.68,7.68,0,0,0,1.69-1l2.49,1a.49.49,0,0,0,.61-.22l2-3.46a.5.5,0,0,0-.12-.64ZM11.86,15.5a3.5,3.5,0,1,1,3.5-3.5A3.5,3.5,0,0,1,11.86,15.5Z" fill="#000001"/></g></svg>