<svg id="Icons" xmlns="http://www.w3.org/2000/svg" width="24" height="24" viewBox="0 0 24 24"><title>ic_maintanance</title>
<path d="M22.037903,4.569885l-3.629822,3.547302L16.375,7.666687l-0.441833-2.024353l3.547363-3.547363
	C17.50061,1.1875,15.025696,1.517517,13.375793,3.167419C11.80835,4.734863,11.395874,6.96228,12.138367,8.85968L1.443665,19.554321
	c-0.329956,0.247498-0.329956,0.824951,0.08252,1.154968l1.8974,1.8974c0.330017,0.330017,0.824951,0.330017,1.154968,0
	l10.694641-10.694641c1.897461,0.742432,4.124817,0.329956,5.692261-1.237488
	C22.615356,9.024658,23.027893,6.549744,22.037903,4.569885z M3.991821,21.058472c-0.552307,0-1-0.447754-1-1
	c0-0.552307,0.447693-1,1-1c0.552246,0,1,0.447693,1,1C4.991821,20.610718,4.544067,21.058472,3.991821,21.058472z" fill="#000001"/>
</svg>
